PathFileType	4	(X/Y/Z)	/Users/itak/Documents/Research/Walk-IL/dataset/trc/00415_00012.trc
DataRate	CameraRate	NumFrames	NumMarkers	Units	OrigDataRate	OrigDataStartFrame	OrigNumFrames
100.000000	100.000000	4	53	mm	100.000000	346	924
Frame#	Time	RPSI			LPSI			L3			STRN			T10			C7			CLAV			RBAK			LBAK			LSHO			LUPA			LAEL			LAOL			LWTS			LWPS			LFRA			LIFD			LHPS			LHTS			RSHO			RUPA			RAEL			RAOL			RWTS			RWPS			RFRA			RIFD			RHTS			RHPS			RBHD			LFHD			RFHD			LBHD			LHIP			RHIP			RASI			LASI			LKNE			LTHI			LANK			LTIP			LTOE			LMT1			LMT5			LHEE			RKNE			RTHI			RANK			RTIP			RTOE			RMT1			RMT5			RHEE			
		X1	Y1	Z1	X2	Y2	Z2	X3	Y3	Z3	X4	Y4	Z4	X5	Y5	Z5	X6	Y6	Z6	X7	Y7	Z7	X8	Y8	Z8	X9	Y9	Z9	X10	Y10	Z10	X11	Y11	Z11	X12	Y12	Z12	X13	Y13	Z13	X14	Y14	Z14	X15	Y15	Z15	X16	Y16	Z16	X17	Y17	Z17	X18	Y18	Z18	X19	Y19	Z19	X20	Y20	Z20	X21	Y21	Z21	X22	Y22	Z22	X23	Y23	Z23	X24	Y24	Z24	X25	Y25	Z25	X26	Y26	Z26	X27	Y27	Z27	X28	Y28	Z28	X29	Y29	Z29	X30	Y30	Z30	X31	Y31	Z31	X32	Y32	Z32	X33	Y33	Z33	X34	Y34	Z34	X35	Y35	Z35	X36	Y36	Z36	X37	Y37	Z37	X38	Y38	Z38	X39	Y39	Z39	X40	Y40	Z40	X41	Y41	Z41	X42	Y42	Z42	X43	Y43	Z43	X44	Y44	Z44	X45	Y45	Z45	X46	Y46	Z46	X47	Y47	Z47	X48	Y48	Z48	X49	Y49	Z49	X50	Y50	Z50	X51	Y51	Z51	X52	Y52	Z52	X53	Y53	Z53	

347	3.46	-156.3096160888672	925.6683959960938	-349.8079528808594	-58.11289215087891	929.5379638671875	-437.5206909179688	-109.2474060058594	1002.438171386719	-396.2867431640625	18.53035736083984	1161.164916992188	-202.2803192138672	-118.9054794311523	1106.650146484375	-413.8018188476562	-102.1628494262695	1354.521362304688	-381.5347595214844	-20.86446952819824	1279.2919921875	-243.3299713134766	-167.0725860595703	1204.213134765625	-390.0118713378906	-19.40675926208496	1327.549926757812	-447.0538330078125	66.06644439697266	1350.497192382812	-396.4336242675781	129.7479095458984	1239.041015625	-448.5746765136719	198.0062103271484	1055.026123046875	-427.8003234863281	123.4650421142578	1012.365844726562	-440.2647399902344	287.9092712402344	947.3846435546875	-259.0442199707031	315.0341796875	897.7405395507812	-319.2074584960938	245.9550628662109	979.28955078125	-389.215087890625	365.6647644042969	817.02880859375	-161.1412353515625	349.8361206054688	845.6127319335938	-258.1023864746094	351.2076110839844	887.0701293945312	-209.2867584228516	-206.5643157958984	1321.08349609375	-253.5916595458984	-258.7308349609375	1256.362915039062	-248.9186096191406	-298.751708984375	1001.026306152344	-291.3841552734375	-212.6110687255859	997.24267578125	-331.3587646484375	-258.0085144042969	761.5369262695312	-229.7459869384766	-326.4476928710938	764.024658203125	-255.4705352783203	-312.5	933.4783325195312	-278.162841796875	-283.8093566894531	592.88818359375	-278.7240600585938	-277.8583984375	661.795166015625	-240.4133453369141	-331.9320678710938	679.1002807617188	-279.4319458007812	-170.1519165039062	1538.890625	-293.6860656738281	22.53626251220703	1552.889038085938	-256.7014770507812	-81.37342071533203	1548.220825195312	-194.0717010498047	-42.789306640625	1542.413452148438	-389.5898132324219	86.17810821533203	922.65283203125	-450.9609069824219	-182.9761657714844	903.8111572265625	-210.6637878417969	-52.13213729858398	919.5853271484375	-151.6450042724609	133.0983123779297	911.8572998046875	-344.3123779296875	39.34307479858398	435.8811340332031	-473.9190368652344	66.03551483154297	576.4136962890625	-458.7166137695312	-189.9685668945312	95.73323822021484	-689.9362182617188	-68.05759429931641	259.4553833007812	-596.0070190429688	-108.0386352539062	35.7185173034668	-503.4991455078125	-175.7938537597656	54.80548477172852	-535.0318603515625	-109.9794158935547	38.4581413269043	-615.09033203125	-252.2700500488281	122.1617050170898	-676.9816284179688	3.374887704849243	456.4729309082031	-87.55764770507812	-84.77955627441406	702.8500366210938	-115.587028503418	108.5508346557617	45.55274200439453	-81.6754150390625	50.75264358520508	339.4435729980469	-66.05854797363281	243.5326080322266	56.2324104309082	47.33075332641602	237.828857421875	52.42177963256836	-31.27913284301758	140.8369140625	44.38135528564453	-4.008777141571045	127.2272262573242	31.5482120513916	-169.1117858886719	
348	3.47	-148.6488494873047	927.4959106445312	-340.1027526855469	-49.94268417358398	930.2345581054688	-427.4097900390625	-100.7258758544922	1003.455749511719	-386.0582580566406	25.63935089111328	1162.864501953125	-192.9430236816406	-111.6980438232422	1107.466064453125	-404.3832092285156	-95.43796539306641	1355.341430664062	-372.906005859375	-14.15916633605957	1280.776733398438	-234.2780609130859	-159.6628265380859	1204.782592773438	-381.0728149414062	-12.38409805297852	1328.729614257812	-438.1456604003906	72.89047241210938	1352.064208984375	-387.326171875	136.7104187011719	1240.6416015625	-439.1404113769531	204.4615173339844	1055.939208984375	-418.0563659667969	129.4855346679688	1014.178894042969	-431.2825012207031	291.3893432617188	942.1463012695312	-250.5553131103516	318.12646484375	893.7060546875	-311.9615173339844	251.1295166015625	978.3825073242188	-380.2145080566406	365.8683166503906	807.6158447265625	-155.9017791748047	351.3579406738281	839.2100830078125	-252.0553131103516	353.10595703125	879.2288818359375	-202.106201171875	-200.0216522216797	1321.84716796875	-245.1008453369141	-251.9621887207031	1256.937744140625	-240.4547729492188	-290.9180908203125	1001.41943359375	-282.3294677734375	-204.5602416992188	997.7778930664062	-321.8559875488281	-249.5635375976562	762.2957763671875	-219.6494903564453	-317.9693603515625	764.4666137695312	-245.5868530273438	-304.5077819824219	933.8693237304688	-268.9141540527344	-274.6127014160156	593.33154296875	-268.2278442382812	-268.9625549316406	662.1362915039062	-230.0793914794922	-322.9283447265625	679.3560180664062	-269.4203186035156	-164.4414978027344	1539.6708984375	-285.7783813476562	28.09746360778809	1554.51513671875	-248.7472229003906	-75.80358123779297	1549.701416015625	-186.1628875732422	-37.10245132446289	1543.278198242188	-381.578857421875	94.24337005615234	922.8057861328125	-440.2278442382812	-175.809326171875	906.2489624023438	-200.9295654296875	-45.22055435180664	921.5874633789062	-141.5444030761719	140.8039093017578	912.6148681640625	-332.8063354492188	51.15415954589844	435.9336853027344	-462.1314086914062	76.19499969482422	576.0274658203125	-446.6918334960938	-182.9175415039062	103.436164855957	-687.19091796875	-58.33661270141602	264.1714477539062	-588.8248291015625	-107.7915649414062	35.74018478393555	-503.9164123535156	-172.3338470458984	57.40553283691406	-534.06689453125	-107.4369888305664	38.68663787841797	-614.1063842773438	-243.3972778320312	133.0290222167969	-672.9269409179688	9.630568504333496	457.3058166503906	-79.75714874267578	-78.8514404296875	703.73291015625	-105.8863830566406	110.0237121582031	45.89785385131836	-80.68255615234375	56.53403472900391	339.5778198242188	-59.71923446655273	246.3144989013672	50.00671005249023	48.97091674804688	239.8119201660156	48.66767883300781	-30.23875999450684	142.6268920898438	43.38295364379883	-3.301710367202759	128.1180267333984	32.89201736450195	-168.3969421386719	
349	3.48	-141.2018280029297	929.3857421875	-330.5390319824219	-41.98598861694336	931.0153198242188	-417.3887634277344	-92.37596130371094	1004.761596679688	-375.8473510742188	32.65449523925781	1164.77978515625	-183.5514373779297	-104.4740524291992	1108.486083984375	-394.8966369628906	-88.69394683837891	1356.340454101562	-364.2698974609375	-7.498514652252197	1282.465209960938	-225.2277984619141	-152.2985229492188	1205.596923828125	-372.1298522949219	-5.341729164123535	1330.111694335938	-429.2319641113281	79.70314025878906	1353.804077148438	-378.1808471679688	143.6592254638672	1242.443237304688	-429.6980285644531	210.8920440673828	1057.08740234375	-408.3257141113281	135.4654693603516	1016.230651855469	-422.3017883300781	294.6482543945312	936.7799072265625	-242.3234100341797	321.1146545410156	889.7918090820312	-305.06298828125	256.2561645507812	977.66357421875	-371.3158874511719	365.7903137207031	797.9077758789062	-151.5286865234375	352.7185363769531	832.8035888671875	-246.6389617919922	354.7071533203125	871.1378784179688	-195.4527740478516	-193.4987640380859	1322.880615234375	-236.6102905273438	-245.2217864990234	1257.799072265625	-231.9318695068359	-283.0892944335938	1002.062561035156	-273.0092468261719	-196.5506744384766	998.5701904296875	-312.1468505859375	-241.0542907714844	763.4183349609375	-209.0180511474609	-309.4224243164062	765.1763305664062	-235.1856842041016	-296.4911193847656	934.5094604492188	-259.3424377441406	-265.257568359375	593.9849853515625	-256.9088134765625	-259.8388061523438	662.673583984375	-219.0963134765625	-313.6980590820312	679.8176879882812	-258.7674560546875	-158.7767028808594	1540.540771484375	-277.8306274414062	33.61711502075195	1556.336181640625	-240.7425842285156	-70.28412628173828	1551.296752929688	-178.2101745605469	-31.44832801818848	1544.322387695312	-373.5387878417969	102.0573806762695	923.1137084960938	-429.4010620117188	-168.9577178955078	908.7391967773438	-191.2690582275391	-38.72885131835938	923.7692260742188	-131.4620056152344	148.2733764648438	913.6743774414062	-320.9545593261719	64.04344177246094	435.9822998046875	-449.6886901855469	86.99321746826172	575.6363525390625	-434.1722717285156	-174.2770843505859	111.7090682983398	-683.8109741210938	-47.21018600463867	268.9048156738281	-580.8431396484375	-107.4033508300781	35.64958190917969	-504.3369445800781	-168.2799530029297	60.18463516235352	-532.9020385742188	-104.2168731689453	39.15433883666992	-612.8735961914062	-232.7152404785156	144.3520355224609	-668.1722412109375	16.03877639770508	458.2589416503906	-72.04865264892578	-72.91481781005859	704.709228515625	-96.36510467529297	111.3981170654297	46.347412109375	-79.80764770507812	62.36698150634766	339.8271179199219	-53.61076354980469	248.9201202392578	44.93471908569336	50.11948776245117	241.6077880859375	45.70182418823242	-29.59916305541992	144.3739929199219	42.8895149230957	-2.754317998886108	128.8165283203125	34.00156784057617	-167.7428436279297	
350	3.49	-133.9927673339844	931.254638671875	-321.1441345214844	-34.29086303710938	931.8052978515625	-407.5248718261719	-84.27957153320312	1006.27099609375	-365.77880859375	39.54040908813477	1166.81201171875	-174.1207275390625	-97.20619201660156	1109.672607421875	-385.3939819335938	-81.92830657958984	1357.464233398438	-355.6431579589844	-0.8916820883750916	1284.275756835938	-216.1917877197266	-145.0023803710938	1206.606079101562	-363.2239379882812	1.726161599159241	1331.625122070312	-420.3283996582031	86.51310729980469	1355.62109375	-368.9933166503906	150.6157379150391	1244.349365234375	-420.2408752441406	217.2776336669922	1058.375122070312	-398.6398315429688	141.4053649902344	1018.408508300781	-413.3489685058594	297.6791076660156	931.3080444335938	-234.3898620605469	324.0402221679688	886.0303955078125	-298.5025634765625	261.3365173339844	977.0802001953125	-362.5429382324219	365.4013671875	787.998779296875	-148.0162048339844	353.9571533203125	826.4588012695312	-241.8352203369141	355.9963684082031	862.8640747070312	-189.3280487060547	-186.9929504394531	1324.129516601562	-228.1398162841797	-238.5279998779297	1258.891357421875	-223.3753509521484	-275.3076477050781	1002.902099609375	-263.4295043945312	-188.6317138671875	999.5594482421875	-302.2640991210938	-232.5080108642578	764.8519287109375	-197.8620300292969	-300.8306579589844	766.1054077148438	-224.2614898681641	-288.4811401367188	935.3409423828125	-249.4493560791016	-255.6966247558594	594.8070678710938	-244.7633056640625	-250.5742645263672	663.3709716796875	-207.4836273193359	-304.3172302246094	680.4481811523438	-247.4906768798828	-153.1528167724609	1541.442626953125	-269.8623962402344	39.10476303100586	1558.292358398438	-232.6931304931641	-64.81048583984375	1552.953491210938	-170.2259979248047	-25.81383514404297	1545.487060546875	-365.4824523925781	109.5952606201172	923.5101928710938	-418.5732116699219	-162.4521484375	911.1928100585938	-181.7291107177734	-32.66881561279297	926.01953125	-121.45947265625	155.4499053955078	914.9064331054688	-308.9496459960938	77.89662933349609	435.9650268554688	-436.5683288574219	98.37998962402344	575.1929931640625	-421.1976928710938	-163.8791046142578	120.4930801391602	-679.6958618164062	-34.70239639282227	273.4945983886719	-571.9871826171875	-106.7150955200195	35.39899826049805	-504.5950012207031	-163.5760650634766	63.21264266967773	-531.4697875976562	-100.1467742919922	40.01403045654297	-611.2966918945312	-220.1656646728516	155.9521789550781	-662.7386474609375	22.52374839782715	459.24560546875	-64.48029327392578	-66.93211364746094	705.7529296875	-87.04638671875	112.6327819824219	46.83521270751953	-79.08134460449219	68.16890716552734	340.104736328125	-47.77455902099609	251.2233734130859	41.00185012817383	50.89142227172852	243.1590270996094	43.44367599487305	-29.26030158996582	145.9811096191406	42.74754333496094	-2.349876403808594	129.3550567626953	34.86861038208008	-167.18310546875	
